<?xml version="1.0" standalone="no"?>
<!DOCTYPE svg PUBLIC "-//W3C//DTD SVG 20010904//EN"
 "http://www.w3.org/TR/2001/REC-SVG-20010904/DTD/svg10.dtd">
<svg version="1.0" xmlns="http://www.w3.org/2000/svg"
 width="856.000000pt" height="856.000000pt" viewBox="0 0 856.000000 856.000000"
 preserveAspectRatio="xMidYMid meet">
<metadata>
Created by potrace 1.14, written by Peter Selinger 2001-2017
</metadata>
<g transform="translate(0.000000,856.000000) scale(0.100000,-0.100000)"
fill="#000000" stroke="none">
<path d="M4156 7588 c2 -13 7 -47 10 -77 3 -30 8 -64 11 -75 9 -43 11 -250 1
-280 -5 -17 -11 -39 -13 -49 -2 -10 -22 -57 -43 -105 -40 -89 -51 -120 -59
-182 -3 -19 -8 -39 -13 -43 -12 -13 -46 9 -68 45 -19 32 -28 58 -53 158 l-11
45 -14 -28 c-8 -15 -21 -27 -28 -27 -22 0 -65 73 -107 182 -22 56 -44 107 -49
112 -14 15 -15 -106 -1 -163 14 -56 24 -77 80 -167 27 -42 33 -65 38 -125 9
-133 0 -234 -41 -434 -20 -97 -71 -205 -96 -205 -15 0 -36 50 -60 145 -50 202
-73 206 -110 22 -6 -32 -13 -57 -15 -55 -1 2 -13 28 -26 58 -41 99 -101 166
-135 153 -51 -19 107 -255 314 -469 11 -12 1 -51 -58 -231 -151 -463 -198
-562 -247 -522 -8 7 -20 25 -25 39 -14 36 -46 188 -53 255 -2 17 -6 50 -9 75
-7 48 -14 129 -21 220 -5 64 -5 377 -1 435 6 80 18 187 22 208 3 12 7 36 9 52
11 97 68 307 113 420 11 28 44 102 75 165 102 211 143 384 89 376 -27 -4 -52
-48 -57 -101 -5 -51 -29 -134 -48 -170 -6 -11 -11 -22 -12 -25 -1 -18 -75
-148 -102 -179 l-31 -36 -26 24 c-29 27 -186 336 -190 374 -1 4 -5 7 -11 7
-12 0 -12 1 -1 -73 12 -92 43 -192 85 -275 63 -125 65 -136 57 -332 -3 -96 -8
-186 -10 -200 -2 -14 -7 -54 -10 -90 -3 -36 -8 -76 -10 -90 -3 -14 -7 -50 -11
-80 -6 -64 -30 -168 -39 -177 -13 -13 -152 141 -262 292 -49 67 -63 75 -83 51
-10 -11 -8 -23 8 -53 10 -21 28 -47 39 -59 27 -28 44 -62 34 -68 -8 -5 -93 30
-102 42 -3 5 -21 19 -40 32 -19 13 -37 27 -40 31 -14 18 -124 88 -132 83 -33
-21 45 -100 202 -206 132 -90 246 -176 293 -222 47 -46 69 -99 82 -201 2 -11
6 -41 9 -67 16 -118 32 -388 41 -678 3 -80 7 -206 9 -280 3 -74 8 -238 11
-365 4 -126 8 -254 10 -282 2 -29 -1 -53 -6 -53 -18 0 -115 70 -149 107 -131
141 -485 610 -531 703 -38 77 -72 198 -93 335 -13 77 -15 94 -20 150 -3 33 -9
87 -12 120 -3 33 -7 96 -9 140 -8 172 -21 366 -30 455 -3 25 -7 74 -10 110 -6
72 -9 101 -24 216 -6 44 -13 100 -15 126 -3 26 -8 58 -10 70 -3 13 -8 53 -11
90 -3 37 -8 77 -10 90 -2 13 -7 52 -9 88 -3 36 -8 76 -10 90 -3 14 -7 43 -10
65 -3 22 -8 49 -10 60 -3 11 -5 24 -5 28 -2 18 -19 -5 -24 -33 -7 -33 -23 -39
-42 -13 -41 56 -41 -76 0 -317 15 -85 23 -118 85 -325 34 -115 43 -206 23
-226 -23 -23 -73 54 -187 286 -62 127 -132 264 -156 305 -23 41 -51 91 -62
110 -32 55 -72 110 -82 110 -19 0 8 -73 86 -232 45 -92 80 -170 77 -172 -2 -3
-35 15 -72 39 -64 41 -122 63 -133 52 -20 -20 130 -178 204 -216 46 -23 69
-52 149 -186 93 -156 128 -241 139 -343 7 -55 8 -401 2 -408 -3 -2 -29 26 -59
63 -149 184 -170 159 -48 -57 20 -36 49 -87 64 -115 83 -149 113 -309 64 -335
-54 -29 -207 85 -333 249 -25 33 -46 64 -46 69 0 6 -4 12 -9 14 -11 4 -67 115
-86 171 -8 24 -17 66 -20 93 -5 48 -42 167 -100 319 -61 159 -89 266 -99 370
-9 88 -33 159 -70 203 -11 12 -24 22 -28 22 -8 0 -2 -125 6 -139 2 -3 7 -31
11 -61 4 -30 9 -58 12 -62 14 -24 -20 0 -72 50 -72 67 -141 124 -172 141 -89
46 94 -184 200 -252 38 -25 55 -44 77 -92 51 -110 126 -356 112 -369 -16 -17
-42 0 -136 85 -130 119 -201 168 -218 151 -11 -11 27 -59 96 -122 183 -169
289 -299 328 -402 18 -47 18 -48 -4 -59 -27 -15 -181 -5 -263 16 -68 17 -169
65 -207 98 -86 74 -155 146 -208 215 -38 50 -120 185 -120 199 0 19 -67 137
-80 141 -18 6 -6 -78 25 -167 14 -41 25 -78 25 -83 0 -16 -24 -7 -89 36 -153
101 -214 124 -149 56 53 -55 116 -106 208 -166 47 -31 106 -71 132 -88 25 -17
93 -70 150 -117 157 -131 234 -170 453 -229 44 -12 88 -27 98 -32 18 -9 18
-10 0 -23 -65 -45 -194 -96 -289 -113 -42 -7 -69 -4 -144 14 -117 29 -142 32
-147 18 -10 -29 210 -97 293 -91 27 3 76 17 109 32 99 46 231 38 347 -21 28
-14 56 -30 62 -35 22 -18 112 -84 128 -94 172 -108 316 -237 378 -339 19 -32
45 -74 58 -93 l23 -35 -98 7 c-54 3 -120 9 -148 11 -75 7 -326 12 -347 6 -10
-2 -18 -9 -18 -16 0 -22 68 -41 184 -52 27 -2 51 -6 54 -8 2 -2 -39 -24 -90
-48 -144 -69 -156 -101 -26 -72 40 9 78 20 83 24 15 11 123 48 180 60 28 7 86
13 130 15 132 6 157 -11 325 -220 104 -130 227 -260 309 -325 24 -19 47 -37
50 -40 4 -3 27 -30 52 -60 134 -163 207 -337 144 -346 -70 -11 -453 146 -603
247 -24 16 -46 29 -49 29 -6 0 -113 78 -123 89 -22 26 -175 131 -189 131 -29
0 2 -36 154 -187 91 -89 165 -166 165 -172 0 -5 -33 -21 -72 -36 -167 -61
-212 -81 -216 -93 -5 -17 46 -10 183 24 140 35 190 36 316 2 162 -42 398 -130
407 -150 2 -5 10 -8 18 -8 21 0 116 -101 141 -151 12 -24 41 -89 64 -143 45
-104 78 -154 97 -142 7 4 3 33 -13 93 -13 48 -22 89 -19 92 8 8 38 -36 73
-104 37 -76 44 -110 25 -129 -20 -20 -17 -76 6 -139 21 -57 33 -146 22 -164
-12 -17 -49 -33 -80 -33 -27 0 -185 46 -237 69 -11 5 -45 19 -75 31 -193 78
-437 223 -651 386 -262 201 -357 351 -504 800 -24 72 -50 144 -59 160 l-17 29
5 -45 c2 -25 7 -54 9 -65 9 -39 36 -131 57 -200 48 -152 78 -280 69 -289 -22
-23 -244 103 -333 189 -28 28 -72 79 -98 115 -43 62 -158 248 -158 257 0 11
-177 274 -244 361 -107 142 -189 221 -292 285 -102 64 -115 74 -201 159 -79
78 -131 177 -137 264 -8 101 -40 143 -67 92 -7 -13 -12 -24 -11 -25 1 -2 1 -6
1 -10 -7 -43 7 -138 27 -192 39 -101 38 -98 12 -104 -26 -6 -57 -4 -268 19
-50 6 -162 6 -167 0 -6 -6 28 -24 58 -30 74 -17 129 -27 168 -32 25 -3 47 -7
51 -9 3 -2 37 -6 75 -10 178 -18 352 -108 527 -273 86 -81 201 -223 253 -310
6 -9 18 -29 27 -43 10 -15 48 -80 86 -145 109 -192 167 -320 174 -385 3 -33 2
-34 -32 -32 -39 3 -554 255 -660 324 -68 44 -136 97 -208 164 -55 51 -182 199
-182 213 0 6 -4 12 -9 14 -5 2 -25 28 -43 58 -109 180 -149 232 -165 216 -2
-2 3 -32 12 -66 24 -93 18 -94 -178 -35 -59 18 -110 29 -113 24 -7 -13 63 -55
146 -87 41 -16 84 -33 95 -37 11 -5 22 -9 25 -9 21 -4 125 -73 168 -112 67
-60 88 -96 67 -117 -18 -18 -184 -73 -206 -69 -4 1 -22 -4 -40 -10 -19 -5 -83
-11 -144 -12 -93 -1 -110 -4 -113 -18 -2 -10 6 -19 18 -23 36 -11 179 -6 255
10 17 3 41 8 55 10 14 2 45 8 70 14 128 29 175 22 242 -34 29 -25 260 -165
271 -165 24 0 239 -137 259 -165 32 -43 -11 -59 -187 -70 -55 -3 -107 -8 -115
-10 -8 -2 -46 -6 -85 -10 -38 -3 -77 -8 -85 -10 -8 -2 -35 -6 -61 -9 -25 -3
-52 -7 -60 -10 -7 -3 -30 -7 -49 -10 -63 -10 -95 -22 -95 -37 0 -23 136 -18
320 11 33 5 78 12 100 15 22 4 128 8 235 11 173 3 225 0 370 -21 53 -8 152
-32 185 -45 34 -13 155 -46 199 -54 30 -5 179 -88 204 -112 7 -8 16 -14 20
-14 11 0 82 -68 82 -78 0 -20 -27 -24 -250 -37 -47 -3 -94 -7 -105 -9 -11 -2
-23 -4 -27 -5 -14 -2 -8 -19 9 -25 23 -9 101 -16 218 -20 151 -5 200 -22 340
-120 145 -101 295 -231 295 -255 0 -28 -48 -36 -220 -35 -155 0 -220 4 -310
20 -14 2 -41 7 -60 10 -54 9 -174 51 -238 83 -96 49 -227 152 -386 305 -105
100 -206 178 -206 158 0 -24 50 -80 251 -281 91 -91 171 -176 178 -188 10 -20
9 -23 -13 -29 -100 -25 -570 134 -801 270 -114 68 -150 86 -170 86 -29 0 -15
-28 37 -72 113 -94 134 -116 117 -123 -35 -13 -553 181 -762 286 -112 55 -157
70 -157 51 0 -16 74 -66 201 -135 36 -20 72 -43 78 -51 14 -16 7 -36 -12 -36
-7 0 -24 -6 -38 -14 -24 -12 -120 -47 -144 -52 -24 -5 -64 -24 -69 -32 -7 -12
76 -5 164 13 14 3 41 7 60 10 19 3 51 9 70 13 74 18 234 3 370 -34 126 -34
172 -49 305 -96 141 -51 183 -74 167 -90 -12 -12 -104 -35 -171 -43 -30 -4
-63 -8 -74 -11 -29 -5 -175 -25 -215 -29 -18 -2 -45 -6 -60 -9 -15 -3 -40 -8
-57 -11 -34 -5 -57 -10 -132 -26 -29 -5 -55 -10 -58 -9 -3 0 -19 -7 -35 -15
-29 -15 -36 -26 -25 -37 6 -6 123 12 173 26 9 2 40 7 67 11 28 3 68 10 90 15
96 21 333 34 371 20 16 -6 24 -17 24 -33 0 -24 -44 -99 -61 -105 -5 -2 -16
-17 -25 -34 l-16 -30 66 4 c80 5 101 24 157 143 62 131 72 137 209 114 36 -6
79 -12 95 -14 17 -2 55 -6 85 -10 30 -3 71 -8 90 -10 151 -14 301 -38 345 -55
38 -14 31 -38 -13 -45 -79 -14 -116 -29 -276 -114 -101 -54 -169 -81 -220 -87
-83 -10 -113 -15 -176 -35 -75 -24 -179 -73 -215 -101 -25 -20 -35 -68 -14
-68 7 0 53 20 103 44 51 24 129 55 174 70 80 25 98 30 157 41 17 3 41 8 55 11
14 3 36 8 50 10 71 13 156 48 217 88 86 57 191 93 323 111 151 20 808 29 913
12 71 -12 195 -58 366 -136 466 -213 544 -323 544 -776 0 -123 -10 -251 -22
-307 -5 -21 -7 -38 -6 -38 8 0 -42 -109 -61 -133 -40 -50 -180 -101 -250 -91
-91 13 -128 38 -137 89 -11 66 -36 91 -81 79 -30 -7 -37 -23 -42 -99 -3 -45
-9 -64 -24 -77 -28 -23 -112 -46 -196 -54 -127 -11 -140 -15 -108 -39 35 -26
106 -31 189 -11 92 21 120 27 162 32 126 15 203 20 258 16 135 -11 162 -3 235
70 90 89 122 212 124 478 1 207 -5 290 -33 428 -24 114 -52 185 -107 268 -38
57 -44 61 -159 105 -99 37 -355 158 -340 160 6 0 30 0 55 -1 121 -7 228 -5
252 2 33 12 45 52 56 191 2 19 10 14 57 -38 109 -118 174 -222 180 -289 2 -15
9 -35 18 -43 13 -13 17 -12 35 7 28 30 36 74 46 250 8 135 16 246 20 268 2 9
7 37 11 62 12 75 14 84 26 113 27 65 39 19 45 -173 9 -305 22 -537 34 -615 6
-33 10 -63 10 -67 0 -16 52 -7 110 17 71 30 80 31 80 6 0 -19 -11 -31 -81 -90
-46 -39 -79 -114 -86 -198 -5 -56 -3 -68 16 -93 26 -36 26 -38 2 -59 -55 -48
-90 -191 -48 -199 13 -3 23 9 38 42 11 25 21 46 23 46 2 0 3 -84 2 -187 -1
-210 10 -265 64 -303 25 -18 29 -18 41 -4 19 23 71 12 190 -41 115 -52 152
-64 284 -95 81 -19 268 -72 305 -87 8 -3 20 -7 27 -9 6 -1 27 -7 45 -13 80
-25 161 -33 165 -16 4 14 -65 50 -139 73 -134 42 -178 72 -178 122 0 14 -6 34
-13 43 -27 37 -119 27 -132 -14 -9 -27 -25 -24 -111 20 -76 39 -79 40 -168 37
-110 -4 -140 9 -178 81 -51 93 -71 220 -71 438 1 215 12 284 64 388 56 111
137 204 229 262 93 59 334 113 575 130 44 3 114 8 155 11 112 9 261 9 385 0
61 -4 148 -9 195 -11 47 -2 177 -6 290 -10 113 -4 230 -8 260 -10 121 -6 266
-16 290 -20 14 -2 50 -7 79 -10 30 -3 84 -19 120 -34 66 -29 94 -39 128 -46
10 -2 47 -10 83 -19 201 -47 361 -78 375 -72 27 10 12 30 -36 48 -91 35 -92
35 -194 53 -57 10 -229 56 -262 70 -41 17 -41 28 0 59 68 51 191 91 251 80 49
-9 56 -10 121 -18 28 -4 61 -9 75 -12 14 -2 44 -7 66 -10 23 -2 53 -7 65 -9
13 -3 47 -7 74 -10 28 -3 57 -8 65 -10 8 -2 39 -7 69 -10 30 -4 63 -9 75 -11
12 -3 39 -7 61 -10 22 -3 57 -9 77 -14 35 -7 48 -5 48 10 0 15 -95 46 -173 56
-16 2 -32 6 -36 8 -4 3 -36 7 -71 11 -62 5 -115 12 -170 20 -61 9 -135 17
-138 16 -1 -1 -16 6 -33 15 l-31 16 28 29 c15 16 31 29 34 29 6 0 246 128 280
149 8 5 47 29 85 52 102 62 237 151 259 171 11 10 23 18 28 18 4 0 16 6 25 14
10 8 63 50 118 94 127 100 163 138 147 154 -18 18 -110 -28 -162 -82 -39 -41
-401 -260 -429 -260 -6 0 -11 -4 -11 -9 0 -5 -10 -12 -22 -16 -13 -4 -25 -8
-28 -9 -3 -2 -27 -12 -53 -24 -47 -21 -77 -28 -77 -17 0 19 65 118 105 161 60
64 175 215 175 232 0 27 -60 -26 -265 -233 -218 -220 -266 -260 -356 -296 -85
-33 -288 -90 -444 -124 -11 -2 -51 -11 -90 -19 -81 -18 -121 -20 -130 -6 -3 5
43 58 102 118 96 95 154 174 140 188 -16 17 -72 -21 -161 -108 -105 -102 -191
-156 -281 -174 -52 -10 -428 -10 -525 0 -41 4 -92 9 -113 11 -21 1 -40 5 -42
7 -13 12 265 248 560 476 45 34 86 62 92 62 6 0 13 4 15 8 3 9 77 44 141 68
23 9 51 20 62 25 11 5 81 24 155 43 74 18 171 48 215 66 44 18 109 43 145 56
36 13 66 24 68 25 2 2 3 2 57 14 22 4 45 10 50 11 14 5 106 25 130 28 53 9
213 37 234 42 48 10 7 19 -100 20 -60 1 -112 4 -116 7 -3 4 7 17 23 29 16 13
36 30 44 38 73 70 340 260 366 260 8 0 14 5 14 10 0 6 7 10 15 10 36 0 143 59
166 91 32 46 62 70 198 164 122 85 151 121 88 111 -32 -5 -95 -36 -124 -61 -6
-5 -28 -21 -48 -35 -19 -14 -55 -44 -80 -67 -25 -24 -49 -43 -55 -43 -5 0 -10
-3 -10 -8 0 -13 -103 -76 -155 -93 -57 -20 -85 -12 -85 26 0 34 17 68 73 153
26 40 54 91 62 112 13 37 13 40 -3 40 -24 -1 -99 -104 -186 -253 -83 -145
-221 -290 -343 -363 -64 -39 -202 -104 -227 -108 -6 -1 -16 -4 -21 -8 -11 -7
-153 -58 -170 -62 -5 -1 -16 -5 -22 -9 -7 -5 -13 -6 -13 -2 0 3 -9 1 -21 -5
-11 -6 -28 -13 -37 -15 -9 -2 -32 -8 -49 -14 -18 -5 -35 -6 -37 -3 -4 8 46
136 87 224 92 196 131 301 143 393 11 84 64 179 161 285 12 14 30 35 41 47 10
11 61 68 114 125 120 129 190 211 212 250 l18 30 -23 -13 c-25 -13 -48 -34
-275 -256 -231 -226 -231 -226 -199 -55 12 61 129 388 146 406 5 6 9 17 9 25
0 9 6 28 14 43 8 14 19 43 26 65 7 21 16 43 20 48 4 6 24 57 44 115 21 58 41
112 44 120 3 8 6 18 7 23 2 4 4 9 5 12 1 3 3 8 4 13 1 4 8 25 15 47 24 77 31
147 15 152 -19 6 -39 -37 -77 -164 -57 -191 -193 -523 -220 -540 -41 -25 -69
175 -52 364 12 125 -10 178 -44 107 -11 -21 -14 -61 -12 -154 7 -256 5 -607
-2 -675 -32 -293 -98 -526 -214 -758 -107 -214 -136 -243 -448 -451 -115 -78
-218 -145 -227 -151 -9 -5 -63 -42 -120 -82 -229 -159 -275 -190 -333 -223
-82 -48 -113 -61 -120 -50 -14 22 20 144 63 230 27 54 65 86 114 95 12 3 34 7
48 10 14 2 41 7 60 10 31 5 70 12 170 31 49 9 90 26 85 34 -3 4 -26 6 -52 4
-27 -2 -103 -7 -170 -10 -118 -7 -123 -6 -123 13 0 20 63 84 200 203 111 97
157 151 145 171 -10 15 -49 -13 -149 -105 -100 -93 -124 -69 -85 85 20 78 20
120 1 127 -27 9 -66 -109 -76 -230 -8 -85 -17 -107 -84 -191 -70 -87 -94 -129
-231 -419 -56 -118 -86 -149 -168 -174 -57 -18 -93 -22 -308 -39 -44 -3 -91
-8 -105 -11 -14 -3 -38 -7 -55 -9 -42 -7 -74 -13 -95 -20 -10 -3 -27 -8 -37
-10 -40 -9 -154 -55 -263 -107 -63 -31 -126 -59 -140 -63 -36 -11 -70 -14 -70
-6 0 14 35 57 91 113 31 32 77 82 100 110 24 29 46 55 49 58 3 3 27 34 52 70
26 36 51 70 55 75 5 6 47 69 94 140 94 140 149 237 149 260 0 26 75 158 150
265 160 228 289 375 382 433 129 82 347 186 509 242 115 40 165 40 263 0 86
-35 130 -38 134 -10 5 37 -96 79 -198 83 -77 4 -110 11 -110 27 0 22 59 51
191 93 152 48 229 82 229 101 0 55 -464 -105 -596 -205 -45 -35 -155 -87 -261
-122 -166 -57 -208 -59 -183 -11 12 23 87 129 99 139 4 3 18 21 33 42 15 20
33 42 40 50 7 7 44 49 83 93 81 93 189 208 259 274 63 60 56 53 171 151 55 47
102 87 105 90 3 3 40 36 82 72 103 89 201 154 344 229 125 65 184 103 184 120
0 17 -55 1 -160 -47 -96 -43 -130 -53 -130 -35 0 17 28 88 73 181 25 53 53
120 62 150 21 65 58 116 169 230 93 96 156 172 156 188 0 5 -8 8 -18 5 -20 -5
-30 -13 -141 -113 -79 -71 -106 -89 -135 -90 -17 0 -18 6 -12 68 20 196 18
214 -22 193 -26 -14 -33 -37 -38 -115 -7 -144 -16 -258 -20 -281 -2 -14 -6
-35 -8 -47 -8 -44 -46 -134 -83 -195 -108 -177 -521 -561 -580 -539 -22 9 -14
93 27 276 26 117 86 324 105 360 8 16 15 31 14 32 -2 9 26 69 57 118 34 55 49
115 29 115 -16 0 -58 -37 -83 -72 -13 -18 -28 -33 -33 -33 -12 0 -7 60 11 135
6 28 13 57 15 65 1 8 8 33 13 55 6 22 13 51 16 65 2 14 12 54 21 90 9 36 19
73 21 83 2 9 6 26 9 37 9 35 15 64 25 110 18 79 21 92 36 154 8 34 17 75 20
91 3 17 7 44 10 60 10 52 9 140 -1 144 -18 8 -45 -44 -50 -94 -3 -28 -8 -68
-11 -90 -4 -22 -8 -49 -9 -60 -5 -29 -51 -195 -65 -230 -6 -16 -11 -31 -11
-32 3 -14 -61 -153 -70 -153 -16 0 -31 85 -34 199 -6 174 -19 241 -45 241 -35
0 -36 -117 -4 -355 11 -80 11 -499 -1 -600 -5 -44 -9 -90 -9 -102 -1 -13 -5
-23 -9 -23 -5 0 -6 -4 -3 -9 18 -28 -100 -527 -161 -681 -28 -71 -94 -174
-145 -230 -77 -83 -212 -243 -261 -311 -9 -13 -43 -60 -75 -104 -32 -44 -108
-160 -170 -258 -61 -97 -112 -174 -115 -170 -11 23 5 422 18 443 3 4 7 25 9
47 5 36 54 210 92 323 14 40 22 80 27 134 1 10 -3 21 -9 23 -13 4 -41 -53 -79
-162 -28 -79 -73 -163 -94 -174 -27 -15 -38 2 -46 73 -9 82 -34 126 -72 126
-6 0 3 -96 11 -108 4 -7 23 -110 41 -222 16 -102 23 -410 12 -520 -14 -139
-30 -197 -86 -310 -30 -60 -124 -213 -163 -265 -4 -5 -48 -65 -97 -131 -111
-152 -115 -156 -178 -220 -113 -115 -159 -106 -179 37 -7 54 -7 329 0 424 19
241 17 218 30 315 4 25 9 59 13 75 3 17 7 40 9 52 1 11 5 30 8 41 6 19 9 31
21 85 11 52 60 188 92 256 70 147 147 258 293 421 36 40 76 86 90 103 14 17
43 52 65 77 22 26 56 66 76 91 49 58 74 86 184 200 51 52 101 109 111 125 10
16 22 31 25 34 11 8 104 161 131 215 48 95 77 180 83 245 4 36 18 112 31 170
14 58 28 116 30 129 3 14 7 28 10 33 3 4 7 18 9 30 3 13 13 59 24 103 11 44
22 98 25 120 3 22 10 64 15 92 10 49 14 85 26 193 3 25 7 65 10 90 2 25 7 70
10 100 5 51 20 149 30 210 8 42 14 63 29 105 9 26 11 44 5 50 -15 15 -62 -16
-79 -52 -20 -44 -37 -48 -80 -19 -20 13 -42 21 -48 18 -16 -11 -5 -82 16 -106
27 -30 39 -55 47 -101 7 -43 7 -189 0 -270 -10 -119 -15 -172 -20 -195 -3 -14
-7 -41 -10 -60 -2 -19 -25 -116 -50 -215 -26 -99 -48 -188 -50 -198 -3 -10 -7
-27 -10 -37 -3 -10 -8 -28 -10 -40 -2 -12 -6 -29 -9 -38 -3 -9 -7 -35 -11 -57
-7 -54 -22 -97 -60 -180 -85 -184 -252 -405 -306 -405 -40 0 -48 86 -15 176
27 73 50 109 110 168 34 32 52 56 42 52 -43 -15 -106 -25 -120 -20 -32 12 -37
84 -36 474 1 157 1 303 1 325 0 48 -21 117 -37 122 -28 9 -34 -52 -38 -437 -3
-306 -10 -361 -45 -380 -29 -15 -83 -95 -141 -207 -29 -56 -63 -112 -76 -124
-12 -11 -51 -31 -86 -44 -35 -12 -102 -40 -149 -63 -116 -55 -168 -70 -179
-52 -10 17 -24 131 -35 280 -22 322 -22 320 -10 328 6 4 57 63 115 132 57 69
109 130 115 136 51 56 164 211 180 249 10 23 10 32 2 37 -19 12 -21 11 -74
-54 -90 -113 -335 -368 -353 -368 -5 0 -11 17 -14 38 -8 55 -16 114 -21 158
-2 21 -7 71 -11 109 -24 229 0 276 171 333 66 22 297 96 305 97 18 3 167 64
225 92 74 36 115 68 115 89 0 19 -39 5 -165 -59 -126 -64 -154 -72 -181 -52
-19 13 -19 15 4 57 12 24 50 72 83 108 73 78 97 119 78 131 -34 21 -129 -72
-177 -174 -44 -94 -104 -147 -219 -195 -67 -29 -220 -60 -253 -52 -33 8 -51
48 -58 125 -11 141 72 232 418 460 83 55 195 139 240 182 38 36 42 43 24 43
-12 0 -43 -18 -70 -40 -27 -22 -53 -40 -59 -41 -5 0 -16 -5 -22 -11 -19 -15
-26 12 -18 69 16 121 17 151 6 157 -6 4 -11 1 -11 -8 0 -8 -4 -16 -8 -18 -4
-1 -23 -50 -42 -108 -39 -118 -64 -159 -129 -213 -47 -39 -170 -104 -206 -109
-16 -2 -19 2 -17 22 5 30 54 151 115 280 49 104 62 140 51 140 -3 0 -34 -30
-68 -66 -45 -48 -66 -64 -78 -59 -17 7 -39 56 -74 168 -17 55 -37 80 -28 35z
m-175 -932 c6 -23 13 -50 15 -61 2 -11 6 -31 8 -45 5 -24 12 -67 21 -135 3
-16 7 -41 10 -55 3 -14 8 -38 10 -55 3 -16 13 -68 22 -115 9 -47 17 -94 18
-105 2 -11 8 -47 14 -80 29 -164 35 -292 13 -318 -27 -32 -86 15 -225 175 -37
43 -67 85 -67 93 0 8 -4 15 -8 15 -13 0 -32 64 -32 109 0 23 16 88 36 144 33
95 61 187 70 230 2 10 5 26 8 35 3 9 8 56 11 104 3 48 10 99 15 114 10 26 11
26 30 9 11 -10 25 -37 31 -59z m-131 -880 c57 -77 111 -147 120 -156 75 -75
150 -257 165 -399 2 -14 6 -42 9 -61 16 -110 20 -183 20 -450 0 -278 -8 -514
-19 -570 -7 -36 -31 -51 -64 -39 -43 17 -130 87 -227 184 -157 156 -240 295
-277 460 -22 100 -14 169 36 317 56 165 68 214 73 305 4 73 -2 88 -29 77 -14
-5 -43 -91 -34 -101 4 -3 -1 -35 -17 -111 -15 -69 -83 -182 -111 -182 -36 0
-6 126 129 540 31 96 58 180 59 185 21 76 51 155 57 148 4 -4 53 -71 110 -147z
m341 -233 c29 -76 54 -274 63 -500 5 -113 -12 -118 -28 -8 -2 17 -7 48 -10 70
-4 22 -8 60 -11 85 -2 25 -6 54 -8 65 -3 11 -8 42 -11 68 -4 27 -9 59 -12 70
-19 95 -23 150 -11 165 13 17 16 16 28 -15z m782 5 c5 -14 -18 -64 -37 -83 -6
-6 -23 -19 -37 -29 -47 -30 -42 18 12 102 15 24 54 30 62 10z m3 -210 c5 -17
0 -85 -11 -138 -21 -102 -41 -151 -106 -259 -19 -32 -106 -149 -119 -161 -3
-3 -30 -34 -60 -70 -72 -85 -260 -279 -283 -291 -27 -15 -38 21 -52 171 -18
186 -8 317 28 387 42 80 153 164 400 303 167 95 189 101 203 58z m-1612 -141
c32 -24 18 -107 -19 -107 -34 0 -51 74 -24 106 14 17 20 17 43 1z m97 -244 c0
-5 2 -31 4 -60 6 -105 64 -277 118 -347 4 -6 26 -38 47 -71 62 -95 194 -248
418 -484 24 -25 47 -54 51 -63 8 -22 6 -389 -3 -528 -12 -174 -24 -303 -31
-330 -2 -8 -7 -40 -10 -70 -4 -30 -8 -57 -10 -60 -2 -3 -6 -24 -9 -46 -21
-135 -59 -239 -74 -196 -2 7 -9 18 -16 25 -35 36 -192 330 -279 522 -25 55
-57 127 -72 160 -38 82 -111 272 -126 326 -7 24 -14 49 -15 54 -22 75 -44 170
-49 209 -3 27 -8 52 -9 55 -10 17 -20 237 -20 461 -1 228 3 309 18 375 2 11 5
23 5 27 1 10 43 48 53 48 4 0 8 -3 9 -7z m793 -183 c3 -14 11 -45 17 -70 16
-68 23 -160 11 -160 -9 0 -21 24 -40 85 -13 43 -16 193 -3 180 5 -5 12 -21 15
-35z m1526 -97 c0 -10 -89 -93 -101 -93 -20 0 -7 20 37 59 45 39 64 49 64 34z
m-187 -203 c-30 -59 -69 -104 -82 -95 -11 6 -7 35 8 64 11 20 80 81 93 81 4 0
-5 -23 -19 -50z m-1309 -97 c2 -10 8 -38 11 -63 12 -76 36 -100 65 -64 8 8 22
20 33 26 18 9 19 8 13 -18 -9 -38 -60 -84 -92 -84 -50 0 -93 76 -79 140 7 38
26 80 36 80 4 0 10 -8 13 -17z m-1293 -192 c8 -9 35 -32 58 -51 24 -19 49 -41
56 -47 8 -7 18 -13 24 -13 6 0 11 -4 11 -8 0 -5 25 -21 55 -37 65 -32 88 -66
148 -215 72 -175 194 -560 178 -560 -27 0 -104 135 -114 200 -14 90 -75 278
-118 366 -39 81 -83 130 -182 205 -118 89 -217 194 -217 229 0 11 65 -34 101
-69z m2363 -88 c-8 -64 -46 -136 -104 -197 -30 -33 -53 -70 -64 -103 -15 -44
-24 -56 -59 -75 -36 -20 -42 -28 -43 -59 -1 -19 -6 -44 -13 -56 -10 -20 -62
-63 -75 -63 -14 0 -4 39 23 90 49 96 65 124 109 188 23 35 42 65 42 67 0 5
145 221 162 243 20 24 28 11 22 -35z m-1139 -286 c0 -198 -6 -325 -18 -400 -2
-9 -8 -22 -14 -28 -11 -11 -14 -3 -29 81 -9 51 -4 475 6 475 1 0 3 15 4 33 2
18 9 46 16 63 27 65 35 15 35 -224z m-40 -548 c8 -25 -2 -69 -15 -69 -6 0 -10
20 -10 45 0 47 14 60 25 24z m-1734 -94 c45 -34 141 -139 130 -143 -14 -5
-146 94 -165 123 -32 49 -18 58 35 20z m2259 -120 c0 -9 -21 -37 -46 -63 -25
-26 -57 -71 -71 -101 -25 -57 -95 -130 -172 -182 -83 -54 -83 -30 0 71 62 77
270 290 282 290 4 0 7 -7 7 -15z m1480 8 c-1 -33 -295 -262 -395 -307 -22 -11
-47 -22 -55 -26 -8 -4 -20 -17 -27 -30 -6 -12 -17 -27 -25 -31 -21 -14 -65
-10 -82 7 -15 14 -14 18 3 43 11 15 48 43 83 61 95 50 225 128 299 181 116 82
199 125 199 102z m-3379 -169 c8 -8 18 -14 21 -14 8 0 167 -107 225 -152 68
-52 77 -73 27 -63 -40 7 -74 26 -114 64 -14 13 -49 35 -78 48 -53 23 -192 150
-192 174 0 11 80 -30 111 -57z m2486 -221 c2 -6 -13 -19 -34 -29 -29 -14 -66
-19 -160 -21 -118 -3 -154 5 -116 25 21 11 73 21 193 37 30 4 56 9 58 10 7 6
56 -12 59 -22z m151 -4 c-16 -10 -50 -11 -73 -2 -15 5 -14 8 6 18 27 15 92 -1
67 -16z m411 -24 c45 -22 52 -65 12 -65 -34 0 -74 53 -54 73 9 9 10 9 42 -8z
m357 -54 c-7 -11 -69 -12 -86 -1 -12 7 -10 11 10 18 26 10 84 -4 76 -17z m667
11 c16 -15 16 -17 -5 -39 -27 -29 -61 -29 -88 -1 -25 27 -25 34 -2 47 24 14
74 10 95 -7z m-834 -1 c12 -8 9 -11 -12 -16 -33 -9 -80 2 -72 15 8 13 65 13
84 1z"/>
</g>
</svg>
