<?xml version="1.0" encoding="UTF-8" standalone="no"?>
<!-- Created with Inkscape (http://www.inkscape.org/) -->

<svg
   xmlns:dc="http://purl.org/dc/elements/1.1/"
   xmlns:cc="http://creativecommons.org/ns#"
   xmlns:rdf="http://www.w3.org/1999/02/22-rdf-syntax-ns#"
   xmlns:svg="http://www.w3.org/2000/svg"
   xmlns="http://www.w3.org/2000/svg"
   xmlns:sodipodi="http://sodipodi.sourceforge.net/DTD/sodipodi-0.dtd"
   xmlns:inkscape="http://www.inkscape.org/namespaces/inkscape"
   width="214.12379"
   height="167.45183"
   id="svg2972"
   version="1.1"
   inkscape:version="0.47 r22583"
   sodipodi:docname="tree.svg">
  <title
     id="title2824">Tree</title>
  <defs
     id="defs2974">
    <inkscape:perspective
       sodipodi:type="inkscape:persp3d"
       inkscape:vp_x="0 : 83.725914 : 1"
       inkscape:vp_y="0 : 1000 : 0"
       inkscape:vp_z="214.12379 : 83.725914 : 1"
       inkscape:persp3d-origin="107.0619 : 55.817276 : 1"
       id="perspective2874" />
  </defs>
  <sodipodi:namedview
     id="base"
     pagecolor="#ffffff"
     bordercolor="#666666"
     borderopacity="1.0"
     inkscape:pageopacity="0.0"
     inkscape:pageshadow="2"
     inkscape:zoom="0.98994949"
     inkscape:cx="171.50589"
     inkscape:cy="57.335092"
     inkscape:document-units="px"
     inkscape:current-layer="layer1"
     showgrid="false"
     inkscape:window-width="1280"
     inkscape:window-height="753"
     inkscape:window-x="-4"
     inkscape:window-y="-4"
     inkscape:window-maximized="1" />
  <metadata
     id="metadata2977">
    <rdf:RDF>
      <cc:Work
         rdf:about="">
        <dc:format>image/svg+xml</dc:format>
        <dc:type
           rdf:resource="http://purl.org/dc/dcmitype/StillImage" />
        <dc:title>Tree</dc:title>
        <dc:description>A tree. From The Encyclopedia of Practical Horticulture A Reference System of Commercial Horticulture; Editor in Chief GRANVILLE LOWTHER; copyright 1914 (therefore in public domain)</dc:description>
        <cc:license
           rdf:resource="http://creativecommons.org/licenses/publicdomain/" />
        <dc:date>2010-10-25</dc:date>
        <dc:language>en</dc:language>
        <dc:subject>
          <rdf:Bag>
            <rdf:li>tree</rdf:li>
            <rdf:li>plant</rdf:li>
            <rdf:li>vegetation</rdf:li>
            <rdf:li>branches</rdf:li>
          </rdf:Bag>
        </dc:subject>
        <dc:creator>
          <cc:Agent>
            <dc:title />
          </cc:Agent>
        </dc:creator>
        <dc:source>http://books.google.com/books?id=A6oMAAAAYAAJ&amp;pg=PA137&amp;img=1&amp;zoom=3&amp;hl=en&amp;sig=ACfU3U3siAuTE5T4WTQ16ZEl2y8IHr8VwA&amp;ci=133%2C353%2C369%2C247&amp;edge=0</dc:source>
        <dc:publisher>
          <cc:Agent>
            <dc:title>THE ENCYCLOPEDIA OF HORTICULTURE CORPORATION</dc:title>
          </cc:Agent>
        </dc:publisher>
      </cc:Work>
      <cc:License
         rdf:about="http://creativecommons.org/licenses/publicdomain/">
        <cc:permits
           rdf:resource="http://creativecommons.org/ns#Reproduction" />
        <cc:permits
           rdf:resource="http://creativecommons.org/ns#Distribution" />
        <cc:permits
           rdf:resource="http://creativecommons.org/ns#DerivativeWorks" />
      </cc:License>
    </rdf:RDF>
  </metadata>
  <g
     inkscape:label="Layer 1"
     inkscape:groupmode="layer"
     id="layer1"
     transform="translate(-203.49411,-422.24544)">
    <path
       style="fill:#000000"
       d="m 330.66025,587.70811 c -3.3,-1.06232 -6.58424,-1.93812 -7.29831,-1.94622 -0.71406,-0.008 -3.18518,-0.92637 -5.49137,-2.0406 -2.66374,-1.28698 -4.32424,-1.63238 -4.5527,-0.947 -0.20189,0.60568 -0.93437,0.29286 -1.67003,-0.71321 -0.84321,-1.15317 -1.19016,-3.93511 -0.97314,-7.803 0.1855,-3.30601 0.11434,-4.99842 -0.15814,-3.76092 -0.27248,1.2375 -0.94444,2.25 -1.49325,2.25 -1.18194,0 -0.0506,-4.20606 1.37848,-5.125 0.59979,-0.38567 0.61203,-0.84747 0.032,-1.20597 -1.54309,-0.95369 -0.18553,-6.64573 1.84408,-7.73195 1.03534,-0.5541 1.88243,-1.45745 1.88243,-2.00745 0,-0.62952 -0.77268,-0.58647 -2.08565,0.11621 -1.1471,0.61391 -2.33617,0.86567 -2.64238,0.55946 -0.51985,-0.51985 -1.02806,-8.138 -1.24117,-18.6053 -0.15413,-7.57027 -2.14919,-2.0585 -2.44165,6.74557 -0.15721,4.73232 -0.69852,7.79089 -1.42152,8.03189 -0.6422,0.21406 -1.16763,-0.46724 -1.16763,-1.51402 0,-1.04677 -1.31597,-3.3772 -2.92437,-5.17873 l -2.92437,-3.27551 -0.32563,2.8454 c -0.30797,2.69111 -0.56965,2.83503 -4.82563,2.6542 l -4.5,-0.1912 5,2.37983 c 2.75,1.3089 5.52236,2.40744 6.16079,2.4412 0.63844,0.0337 2.10094,2.00345 3.25,4.37709 2.598,5.36675 2.97223,20.07602 0.6262,24.61276 -1.46151,2.82624 -4.14892,4.64949 -6.03699,4.09575 -1.78648,-0.52394 -8.1619,0.0184 -11.51257,0.97937 -2.03815,0.58454 -3.87578,0.58359 -4.87861,-0.003 -1.27055,-0.74257 -0.97805,-0.96144 1.39118,-1.04097 3.46038,-0.11614 6.40869,-1.12441 6.4627,-2.21012 0.0205,-0.4125 0.0373,-1.425 0.0373,-2.25 0,-0.825 0.675,-1.5 1.5,-1.5 0.825,0 1.5,0.87011 1.5,1.93358 0,2.42232 4.37048,3.17593 8.11172,1.39872 2.83336,-1.34593 3.85691,-4.89848 3.87727,-13.4573 0.0264,-11.10951 -2.0495,-14.01155 -13.81002,-19.30554 -8.15229,-3.66974 -8.55788,-3.74368 -20,-3.64559 -11.74096,0.10064 -17.29646,1.12482 -20.30215,3.74277 -0.89274,0.77758 -3.82975,1.7626 -6.52668,2.18893 -2.69693,0.42632 -6.42314,1.53323 -8.28046,2.45978 -3.8733,1.93272 -4.06973,1.97471 -4.06973,0.87035 0,-1.26839 6.76009,-4.18167 9.78393,-4.21642 1.49384,-0.0172 4.51607,-1.13986 6.71607,-2.49488 2.2,-1.35501 4.7875,-2.46597 5.75,-2.46879 0.9625,-0.003 1.75,-0.38985 1.75,-0.86008 0,-0.47023 -3.0375,-1.15779 -6.75,-1.52791 -3.7125,-0.37012 -8.1867,-0.93268 -9.94267,-1.25012 -2.92837,-0.5294 -3.31738,-0.27873 -4.69898,3.0279 -1.08444,2.59544 -2.12412,3.60509 -3.71231,3.60509 -2.15126,0 -2.16056,-0.0502 -0.37466,-2.02363 1.10486,-1.22086 1.46387,-2.36918 0.90499,-2.8947 -0.87454,-0.82234 -8.37821,-0.12971 -15.47045,1.42801 -1.96378,0.43132 -2.97692,0.33331 -2.6146,-0.25293 0.32534,-0.52641 4.76914,-1.51525 9.8751,-2.19743 12.27854,-1.64046 13.0383,-1.94861 8.78358,-3.56249 -9.10874,-3.45508 -15.08269,-4.74175 -18.73732,-4.03567 -7.94444,1.5349 -9.92953,1.54881 -5.36745,0.0376 2.41737,-0.80075 4.59848,-1.65917 4.8469,-1.90759 0.24843,-0.24839 -1.43553,-1.41443 -3.74213,-2.59117 -2.3066,-1.17674 -3.93925,-2.39409 -3.62811,-2.70522 0.31113,-0.31113 1.59224,0.0964 2.8469,0.90556 2.69145,1.73584 18.43153,7.81382 20.11665,7.76798 0.64051,-0.0174 -0.0729,-0.95496 -1.58544,-2.08341 -4.38878,-3.27439 -3.17699,-4.09829 1.5,-1.01987 4.48868,2.95448 16.26097,7.14296 20.021,7.12331 1.8556,-0.01 1.1645,-1.02521 -4.12558,-6.06209 -3.49502,-3.32774 -6.13019,-6.27482 -5.85594,-6.54907 0.27425,-0.27425 2.45881,1.38 4.85458,3.67611 6.7741,6.49231 9.97616,8.57948 15.04876,9.80912 5.73236,1.38957 15.80718,1.49736 15.80718,0.16912 0,-0.53265 -2.5875,-2.89515 -5.75,-5.25 -5.06061,-3.76821 -6.37944,-4.28154 -11,-4.28154 -2.8875,0 -5.25,-0.3375 -5.25,-0.75 0,-0.4125 2.25,-0.75 5,-0.75 2.75,0 4.99443,-0.3375 4.98762,-0.75 -0.0151,-0.91383 -6.57191,-5.25 -7.93865,-5.25 -0.53849,0 -2.9073,-0.64776 -5.26402,-1.43947 -5.52236,-1.85517 -14.58085,-2.14345 -22.75507,-0.72416 -3.55856,0.61787 -6.84633,0.74718 -7.30615,0.28736 -0.74708,-0.74708 7.75661,-2.16935 15.77627,-2.63863 4.85603,-0.28415 4.12207,-1.77348 -2.59278,-5.2612 -3.46908,-1.80185 -7.1016,-3.99483 -8.07228,-4.87327 -1.23208,-1.11502 -2.60561,-1.38231 -4.5499,-0.88539 -5.53364,1.41426 -11.28504,1.75411 -11.28504,0.66684 0,-0.58812 0.66977,-0.8123 1.48838,-0.49817 1.73584,0.66611 11.51162,-1.49521 11.51162,-2.54509 0,-1.6672 -4.18773,-4.99274 -7.70192,-6.1162 -2.08895,-0.66783 -4.24808,-1.67609 -4.79808,-2.2406 -0.67862,-0.69652 -0.40773,-0.81702 0.8429,-0.37493 1.0136,0.35829 2.97587,0.9358 4.36061,1.28334 2.223,0.55794 2.43834,0.38187 1.83971,-1.50426 -1.06283,-3.34867 0.037,-2.52048 2.80718,2.11383 3.89048,6.50854 8.91737,11.38032 14.80436,14.34756 2.93988,1.4818 7.37024,3.72558 9.84524,4.98616 2.475,1.26059 4.6266,1.94015 4.78133,1.51013 0.52202,-1.45074 -3.49056,-9.54907 -8.19966,-16.54881 -4.80402,-7.14085 -11.874,-12.40268 -17.58167,-13.08516 -5.95294,-0.7118 -9.25832,-1.38684 -9.85744,-2.01311 -0.35341,-0.36942 2.21203,-0.347 5.70098,0.0498 6.1749,0.70231 6.31447,0.66717 5.25,-1.32181 -1.36869,-2.55742 -1.42889,-7.17478 -0.0935,-7.17478 0.55,0 1,1.395 1,3.1 0,3.39008 4.12742,8.12531 9.57991,10.99065 2.97799,1.56496 9.07096,9.6307 14.15709,18.74083 1.42383,2.55032 3.73867,5.54405 5.14408,6.65273 3.19386,2.51952 7.2843,4.68374 7.8269,4.14115 0.22573,-0.22573 -0.51623,-3.2331 -1.64878,-6.68305 -1.13256,-3.44994 -2.0291,-6.9858 -1.9923,-7.85747 0.0368,-0.87166 0.6715,0.352 1.41047,2.71925 3.9694,12.71585 6.32795,16.48384 13.81734,22.07443 6.98476,5.21391 13.52038,8.69024 20.66355,10.99106 4.57719,1.47432 5.88498,0.20276 4.24904,-4.13133 -0.77265,-2.04699 -0.85663,-3.35514 -0.22882,-3.56441 0.5884,-0.19613 0.3773,-1.51895 -0.51901,-3.25222 -1.84906,-3.57569 -2.75853,-3.83842 -1.45947,-0.42162 0.52277,1.375 0.57277,2.5 0.11111,2.5 -0.46167,0 -1.5917,-1.96989 -2.51119,-4.37754 -2.1671,-5.67446 -3.69386,-6.90327 -11.92896,-9.601 -6.07965,-1.99164 -7.31731,-2.10041 -11.27867,-0.9913 -5.57137,1.55988 -6.85505,0.72467 -1.39874,-0.91008 2.20355,-0.6602 4.00645,-1.39803 4.00645,-1.63963 0,-0.24159 -2.0342,-2.31432 -4.52045,-4.60607 -6.16446,-5.68219 -4.91987,-6.07055 1.83149,-0.57149 4.94498,4.02774 17.97773,9.74168 19.27061,8.44879 1.12767,-1.12767 -3.58522,-8.95341 -6.62615,-11.00268 -1.85663,-1.25119 -5.33796,-4.85656 -7.73629,-8.01194 -3.82922,-5.03795 -4.7824,-5.73706 -7.82202,-5.73706 -1.90379,0 -5.07693,0.675 -7.05143,1.5 -4.84497,2.02435 -7.75235,1.76149 -3.34576,-0.3025 l 3.5,-1.63935 -3.25,-0.34244 c -1.7875,-0.18833 -3.25,-0.72921 -3.25,-1.20195 0,-0.47274 3.46461,-0.5975 7.69912,-0.27725 l 7.69913,0.58229 -2.11289,-3.4094 c -1.16209,-1.87517 -3.61419,-4.40424 -5.44913,-5.62015 -1.83492,-1.21592 -4.87119,-3.35342 -6.74726,-4.75 -3.6347,-2.70576 -7.90355,-3.24403 -11.30218,-1.42514 -1.54213,0.82532 -3.10556,0.80735 -6.03161,-0.0693 -2.17244,-0.65088 -3.70405,-1.42926 -3.40358,-1.72973 0.30047,-0.30047 1.8917,-0.0773 3.53607,0.49593 2.35765,0.82188 4.007,0.65233 7.80105,-0.80194 2.82113,-1.08135 4.19082,-2.03785 3.31128,-2.31241 -0.825,-0.25753 -3.37091,-0.97523 -5.65757,-1.59489 -2.28667,-0.61966 -5.62806,-2.5003 -7.42532,-4.17919 -1.79726,-1.67889 -4.42635,-3.69064 -5.84243,-4.47056 -3.29233,-1.81328 -8.83971,-6.44052 -7.72905,-6.44704 0.4651,-0.003 2.23502,0.98437 3.93317,2.19355 2.0461,1.45695 2.90339,1.70993 2.5416,0.75 -2.40492,-6.38086 -1.7841,-8.49922 0.72849,-2.48575 2.00421,4.79674 7.28994,10.57194 11.15337,12.18619 3.19982,1.33697 9.29774,1.86255 9.29774,0.80138 0,-1.91277 -3.60937,-6.81675 -7.60726,-10.33584 -2.57088,-2.26297 -4.06744,-4.1145 -3.32569,-4.1145 0.74174,0 3.0551,1.66633 5.14079,3.70295 2.08569,2.03662 3.79216,3.13367 3.79216,2.43789 0,-2.31987 -3.21808,-11.14084 -4.06442,-11.14084 -1.12605,0 -6.96281,-6.30611 -6.37802,-6.8909 0.25482,-0.25481 1.87007,0.8539 3.58945,2.4638 l 3.12615,2.9271 -0.59091,-4 c -0.54139,-3.66475 -0.46902,-3.83731 0.86342,-2.05887 0.79988,1.06762 1.46501,3.31762 1.47806,5 0.0131,1.68238 1.13598,5.75887 2.49538,9.05887 1.35939,3.3 2.47371,6.73254 2.47626,7.62788 0.0135,4.72881 6.5429,13.54491 11.25463,15.19608 2.81259,0.98564 2.17099,-4.05674 -1.25,-9.82396 -3.60852,-6.08336 -3.87323,-8.07744 -0.531,-4 l 2.45907,3 0.036,-6.37827 c 0.03,-5.32805 -0.47009,-7.26277 -3.03742,-11.75 -1.69037,-2.95445 -3.37787,-5.38595 -3.75,-5.40333 -1.25639,-0.0587 -6.41243,-5.06592 -5.82321,-5.65514 0.3213,-0.3213 1.74244,0.17475 3.1581,1.10232 l 2.57391,1.68649 -2.60994,-5.15047 c -1.43547,-2.83276 -2.4092,-5.35121 -2.16385,-5.59655 0.54431,-0.54431 5.50419,8.23061 8.70174,15.39495 3.66834,8.21918 5.59517,6.06052 2.47758,-2.77568 -1.83857,-5.21107 -3.13305,-16.15922 -1.66267,-14.06221 0.78596,1.12091 1.07273,0.91469 1.39063,-1 0.22028,-1.32666 0.72164,0.73789 1.11414,4.58789 0.3925,3.85 1.13891,10.15 1.65869,14 0.51977,3.85 1.15556,11.5 1.41287,17 0.56604,12.09967 1.98819,18.89222 4.68627,22.38292 1.11256,1.43939 4.13475,5.50115 6.71598,9.02612 2.58123,3.52497 5.7116,7.07131 6.95638,7.88076 l 2.26323,1.47171 -0.5252,-17.88075 c -0.5869,-19.98161 -1.18368,-26.91883 -2.53251,-29.43914 -0.50405,-0.94184 -3.51573,-3.42185 -6.69261,-5.51114 -5.6823,-3.73698 -7.56039,-5.47956 -6.76401,-6.27595 0.22187,-0.22187 1.80693,0.7776 3.52236,2.22104 3.66605,3.08478 6.08296,3.51669 3.45996,0.6183 -0.99854,-1.10337 -1.51828,-2.30337 -1.15499,-2.66667 0.3633,-0.36329 0.79874,-0.47303 0.96765,-0.24387 3.85675,5.23262 7.03888,8.91667 7.70185,8.91667 0.86073,0 2.59114,-16.89175 2.10004,-20.5 -0.14971,-1.1 -0.87775,-2.94671 -1.61786,-4.1038 -0.74011,-1.15709 -1.61057,-3.85709 -1.93434,-6 -0.52075,-3.44664 -0.4608,-3.60774 0.51958,-1.3962 2.8231,6.3683 4.30292,9 5.06077,9 1.16552,0 4.86285,-7.52806 4.86285,-9.90114 0,-1.08946 0.45,-2.25894 1,-2.59886 2.05362,-1.26921 0.89455,4.19192 -2.09239,9.85854 -4.65916,8.83905 -6.37564,21.85738 -4.73659,35.92363 1.59602,13.6969 2.99978,13.88693 7.22175,0.97762 l 3.02113,-9.23754 -2.95695,-3.26113 c -2.78849,-3.07533 -5.45695,-7.10841 -5.45695,-8.24755 0,-1.65013 2.22547,-0.0872 3.18446,2.23643 l 1.13497,2.75 0.61149,-3 c 0.68077,-3.33992 1.48546,-2.62456 2.53094,2.25 0.38338,1.7875 1.00145,3.25 1.37348,3.25 1.30621,0 2.96962,-5.56003 3.45016,-11.53237 0.39457,-4.90379 0.13264,-6.46798 -1.40006,-8.36078 -1.03699,-1.28063 -1.84991,-3.74107 -1.80649,-5.46763 0.0772,-3.07093 0.11167,-3.04676 1.58333,1.11078 1.44804,4.09082 3.19536,5.60175 3.46936,3 0.0724,-0.6875 0.4099,0.28923 0.75,2.17051 0.631,3.49042 3.11836,5.57481 3.11836,2.61316 0,-0.89814 0.6788,-2.94564 1.50844,-4.55 1.7494,-3.38296 1.97462,-5.76277 1.13412,-11.98367 -0.60594,-4.48476 -0.6041,-4.48815 0.54437,-1 1.53519,4.6627 1.46273,4.62712 3.85232,1.89166 2.35419,-2.69494 2.28159,-2.3459 -0.92385,4.44145 -1.25538,2.65821 -2.07663,5.03899 -1.82499,5.29063 0.25164,0.25164 2.08285,-0.50143 4.06936,-1.6735 2.64551,-1.5609 3.89348,-3.17701 4.66457,-6.04064 1.23323,-4.57984 2.50165,-5.28957 1.62566,-0.9096 -0.68146,3.40728 -0.10017,3.71737 2.52126,1.34501 1.00581,-0.91024 1.82874,-1.22539 1.82874,-0.70034 0,0.52506 -3.63623,3.35353 -8.0805,6.2855 -8.29087,5.46962 -9.92545,7.58788 -9.11734,11.81523 0.41956,2.19481 0.81037,2.36402 4.08092,1.76695 4.62117,-0.84364 7.97655,-3.01294 9.05738,-5.85575 0.95345,-2.50775 3.82142,-5.22805 4.64431,-4.40516 0.29504,0.29504 -0.61583,1.68871 -2.02416,3.09704 -4.63259,4.63259 -2.77756,6.18479 3.07136,2.56996 1.85241,-1.14486 3.36803,-1.64613 3.36803,-1.11394 0,1.2437 -4.90513,3.51379 -12.5,5.78499 -8.67444,2.59404 -8.73488,2.67272 -7.93792,10.33363 0.37631,3.61728 0.81299,6.72358 0.9704,6.90289 0.29717,0.3385 8.43987,-8.22792 9.66315,-10.16599 0.38259,-0.60615 0.99476,-0.80296 1.36037,-0.43735 0.36562,0.36561 -1.9134,3.70374 -5.06449,7.41806 l -5.72924,6.7533 0.46981,7.3206 c 0.25839,4.02632 0.68008,7.53086 0.93708,7.78786 0.257,0.257 2.21922,-0.42593 4.3605,-1.51761 2.14127,-1.09168 4.40473,-1.98488 5.02991,-1.98488 0.62517,0 1.95795,-1.82125 2.96172,-4.04722 1.00378,-2.22597 2.48859,-4.41856 3.29958,-4.87241 1.16779,-0.65353 1.43889,-2.94731 1.30317,-11.02642 -0.12092,-7.19798 0.15227,-10.00122 0.92794,-9.52183 0.60461,0.37368 1.00236,2.31932 0.88388,4.32365 -0.11848,2.00432 -0.15251,7.16205 -0.0756,11.46162 0.13589,7.59966 0.20245,7.79984 2.38978,7.18731 l 2.25,-0.63007 -2.12136,1.81269 c -2.57168,2.19744 -4.0249,8.31268 -1.97546,8.31268 2.01908,0 8.46939,-9.98159 9.04711,-14 0.27675,-1.925 1.41364,-6.64026 2.52642,-10.47836 2.128,-7.33965 2.72247,-18.97147 1.02325,-20.02164 -0.55,-0.33992 -1,-1.32158 -1,-2.18146 0,-1.21767 0.30591,-1.30955 1.38322,-0.41546 1.06665,0.88524 1.51719,0.79883 1.96861,-0.37756 0.32197,-0.83903 1.06536,-1.52552 1.65197,-1.52552 0.71005,0 0.75027,0.591 0.12034,1.76804 -0.52042,0.97242 -1.25347,5.58492 -1.629,10.25 -0.37553,4.66508 -1.54056,11.45548 -2.58896,15.08977 -1.0484,3.6343 -1.9104,7.6843 -1.91556,9 -0.0114,2.90668 -4.89174,11.60344 -8.13349,14.49388 -1.29642,1.15592 -3.78004,3.85592 -5.51916,6 -1.73912,2.14407 -4.78919,5.69831 -6.77793,7.89831 -7.55081,8.35289 -10.34758,17.98708 -10.50612,36.19098 -0.0886,10.16803 2.20996,9.4115 11.5149,-3.78995 4.16065,-5.90296 5.53213,-8.80443 6.1449,-13 0.7732,-5.29394 0.19568,-14.55045 -1.2665,-20.29966 -0.52633,-2.06951 -0.40969,-2.69621 0.40779,-2.19098 0.62975,0.3892 1.14499,1.55453 1.14499,2.58961 0,3.98182 1.91043,2.78597 3.58209,-2.24224 0.96139,-2.89177 1.93224,-4.70717 2.15746,-4.03422 0.22521,0.67295 -0.52405,3.85291 -1.66504,7.06658 -1.22778,3.45815 -2.06578,8.26482 -2.05311,11.77646 l 0.0214,5.93342 4.3641,-7 c 2.40026,-3.85 6.69308,-9.54156 9.53961,-12.64791 4.74488,-5.178 5.38094,-6.46763 7.64475,-15.5 2.64453,-10.55137 3.26013,-20.06434 1.94798,-30.10209 -0.58647,-4.48638 -0.49565,-6.25 0.32187,-6.25 0.71381,0 1.13889,2.05285 1.13889,5.5 0,3.025 0.3907,5.5 0.86822,5.5 0.97951,0 4.13178,-10.49537 4.13178,-13.75659 0,-1.16896 0.4787,-2.42123 1.06378,-2.78283 1.27803,-0.78986 0.67456,2.96293 -2.6926,16.74448 -2.7475,11.24532 -2.81254,11.96241 -0.84971,9.36794 2.2916,-3.02902 2.89077,-1.06159 0.63905,2.09839 -2.06018,2.89119 -5.86042,17.96205 -4.79734,19.02513 0.91285,0.91284 10.90331,-8.03056 14.06139,-12.58768 1.96528,-2.8359 2.90523,-5.53563 3.0796,-8.84527 0.13804,-2.61997 0.30607,-5.55107 0.3734,-6.51357 0.0673,-0.9625 0.59282,-1.75 1.16774,-1.75 0.65305,0 0.79892,1.31343 0.38871,3.5 -0.81236,4.33024 0.0508,4.39168 4.26837,0.30383 1.81369,-1.75789 3.29761,-2.74922 3.29761,-2.20295 0,0.54628 -1.8,2.75088 -4,4.89912 -2.2,2.14824 -4,4.39442 -4,4.99151 0,0.59708 -0.8932,2.83756 -1.98488,4.97883 -1.09168,2.14128 -1.8085,4.06961 -1.59293,4.28518 0.21557,0.21557 1.82559,-0.34941 3.57781,-1.25552 1.75222,-0.90611 3.43444,-1.39889 3.73827,-1.09507 0.30382,0.30383 -1.6505,1.59798 -4.34293,2.87589 -2.69244,1.27792 -6.24534,3.52932 -7.89534,5.00312 -1.65,1.4738 -5.17573,4.49723 -7.83496,6.71873 -5.12753,4.28353 -16.01865,16.97705 -15.23704,17.75867 0.70711,0.7071 9.69412,-2.5627 11.48911,-4.18016 2.69658,-2.42988 15.9872,-6.85341 14.79489,-4.9242 -0.32189,0.52083 -2.86378,1.56742 -5.64863,2.32576 -5.52134,1.50351 -6.66927,3.00832 -2.31337,3.03257 3.0345,0.0169 6.05235,1.51567 5.05669,2.51134 -0.34947,0.34946 -1.54435,0.14893 -2.6553,-0.44563 -1.11095,-0.59456 -2.8935,-1.08102 -3.96122,-1.08102 -2.46317,0 -12.31946,4.33624 -16.84278,7.40991 -3.10349,2.10888 -12.34739,14.63243 -12.34739,16.72813 0,1.60774 -8.76622,14.37915 -11.87396,17.29905 -4.72025,4.43495 -3.7853,4.9245 2.93042,1.53441 4.26628,-2.15361 8.03497,-3.21131 12.75,-3.57834 10.67036,-0.83061 10.44778,-0.70289 13.5218,-7.7591 1.54511,-3.54672 3.67835,-7.23505 4.74052,-8.19631 1.06217,-0.96125 1.93736,-2.69048 1.94487,-3.84274 0.0201,-3.08775 1.10138,-6.59501 2.03318,-6.59501 0.44746,0 0.40267,1.4327 -0.0995,3.18377 -1.24738,4.34936 -0.46254,4.68405 3.06313,1.30624 1.64423,-1.57531 2.98954,-2.36013 2.98954,-1.74405 0,0.61608 -2.025,2.77948 -4.5,4.80755 -2.475,2.02808 -4.5,4.0746 -4.5,4.54782 0,0.47323 2.1375,0.58062 4.75,0.23866 2.6125,-0.34196 4.49578,-0.34163 4.18508,7.2e-4 -0.31071,0.34236 -2.99342,0.97196 -5.96158,1.39912 -5.0651,0.72894 -5.48466,1.00791 -6.82931,4.54085 -0.78796,2.0703 -1.17628,4.02057 -0.86292,4.33392 0.31336,0.31336 3.64076,-1.58693 7.39423,-4.22286 3.75348,-2.63593 9.0745,-6.24861 11.8245,-8.02816 8.74272,-5.65751 9.31311,-6.23851 12.52025,-12.75314 4.04237,-8.21124 5.73581,-18.54653 5.01551,-30.61044 -0.39077,-6.54474 -0.15368,-9 0.86908,-9 0.49767,0 0.66706,1.77282 0.37644,3.9396 -0.54802,4.08573 0.36938,9.74307 1.41103,8.70142 0.91731,-0.91731 5.14846,-11.63957 5.84553,-14.81329 0.34159,-1.55525 1.01379,-2.82773 1.49378,-2.82773 1.09967,0 -0.77933,6.00182 -5.41804,17.30607 -3.19408,7.78376 -4.43567,12.69393 -3.2098,12.69393 0.22207,0 3.1856,-2.8125 6.58562,-6.25 7.69107,-7.77586 7.56637,-6.06289 -0.15136,2.0792 -6.13854,6.47606 -7.83761,9.04565 -7.83883,11.85506 -4.3e-4,0.99866 -1.36154,4.69213 -3.02468,8.20772 -1.66315,3.51559 -2.87552,6.54036 -2.69417,6.72171 0.18135,0.18135 3.90495,-0.99585 8.27468,-2.61599 8.5477,-3.1692 11.66563,-5.87083 16.7352,-14.50074 1.53463,-2.6124 3.07766,-4.46239 3.42896,-4.11109 0.3513,0.3513 -0.3418,1.96497 -1.54023,3.58594 -4.64525,6.28303 -0.63774,6.9909 5.82103,1.02819 2.38303,-2.2 5.24601,-4 6.36217,-4 1.44228,0 0.67087,0.86155 -2.66639,2.97798 -2.58268,1.63788 -4.69578,3.40298 -4.69578,3.92244 0,0.51946 -1.47174,1.43019 -3.27054,2.02385 -1.79879,0.59366 -5.44779,2.87855 -8.10888,5.07755 l -4.83835,3.99818 4.35889,0.10525 c 3.65062,0.0881 3.14024,0.298 -3.14112,1.29146 -4.125,0.65242 -8.85,1.9037 -10.5,2.78062 -1.65,0.87693 -5.475,2.11608 -8.5,2.75368 -3.025,0.6376 -7.15441,2.37646 -9.17647,3.86413 -5.0947,3.74827 -15.7522,12.60952 -15.48588,12.87584 0.12053,0.12053 3.72907,0.43319 8.01898,0.69479 9.07837,0.55361 12.4252,-0.36962 16.03775,-4.42408 1.44157,-1.61793 3.12268,-2.94169 3.73578,-2.94169 1.38683,0 -0.44319,2.59119 -4.05741,5.74503 -3.26976,2.85326 -1.89757,2.89562 8.40929,0.25956 8.80312,-2.25146 8.95543,-2.34708 16.38198,-10.2852 6.42475,-6.86731 8.22388,-6.89827 2.18488,-0.0376 -2.30865,2.62277 -3.78303,4.90684 -3.27639,5.07572 1.15657,0.38553 13.02049,-6.25085 15.79194,-8.83361 1.13545,-1.05814 2.71045,-1.92165 3.5,-1.91892 2.94116,0.0102 -11.27477,10.33856 -20.86733,15.16086 -5.92453,2.97833 -5.63146,3.26946 4.36802,4.33894 3.33582,0.35678 6.71082,1.09147 7.5,1.63264 1.02796,0.70491 0.58412,0.82609 -1.56514,0.4273 -1.65,-0.30615 -6.25402,-1.00563 -10.23115,-1.55439 -3.97713,-0.54876 -7.57713,-1.09852 -8,-1.22167 -1.53227,-0.44627 -7.40441,2.18299 -6.85627,3.06991 0.30943,0.50066 3.49318,1.46326 7.07501,2.1391 3.58183,0.67584 6.51241,1.65817 6.51241,2.18296 0,0.52478 -0.7875,0.70643 -1.75,0.40366 -0.9625,-0.30278 -4.18036,-1.00933 -7.15081,-1.57011 -2.97044,-0.56078 -5.99184,-1.51012 -6.71421,-2.10963 -0.76728,-0.63679 -7.84604,-1.27975 -17.02397,-1.54629 -8.64081,-0.25094 -15.96942,-0.60808 -16.28579,-0.79365 -0.31637,-0.18556 -5.27944,0.0663 -11.02903,0.55976 -11.7458,1.00802 -15.53329,2.75979 -19.18998,8.87564 -1.64637,2.75357 -2.08624,5.13163 -2.06255,11.1507 0.0361,9.16527 2.02377,13.36292 5.87052,12.39745 1.39081,-0.34907 3.35989,0.0767 4.84024,1.0467 1.52432,0.99878 2.49558,1.20122 2.49558,0.52016 0,-0.61326 0.85,-1.11501 1.88889,-1.11501 1.1627,0 1.83549,0.65084 1.75,1.6929 -0.0937,1.14234 1.05406,2.03669 3.52926,2.75 3.90606,1.12566 6.10282,2.59269 3.74852,2.50332 -0.77917,-0.0296 -4.11667,-0.92296 -7.41667,-1.98528 z m 45,-38.96095 c 0.33992,-0.55 -0.33508,-1 -1.5,-1 -1.16492,0 -1.83992,0.45 -1.5,1 0.33992,0.55 1.01492,1 1.5,1 0.48508,0 1.16008,-0.45 1.5,-1 z m -25,-1 c -0.33992,-0.55 -1.06803,-1 -1.61803,-1 -0.55,0 -0.72189,0.45 -0.38197,1 0.33992,0.55 1.06803,1 1.61803,1 0.55,0 0.72189,-0.45 0.38197,-1 z m 3.6875,0.31689 c -0.72188,-0.28887 -1.58438,-0.25335 -1.91667,0.0789 -0.33229,0.3323 0.25834,0.56864 1.3125,0.52522 1.16495,-0.048 1.4019,-0.28494 0.60417,-0.60416 z m 4,0 c -0.72188,-0.28887 -1.58438,-0.25335 -1.91667,0.0789 -0.33229,0.3323 0.25834,0.56864 1.3125,0.52522 1.16495,-0.048 1.4019,-0.28494 0.60417,-0.60416 z m -22.62178,-1.42323 c 0.47927,-0.77547 -0.59756,-0.92712 -3.60056,-0.50709 -5.69128,0.79605 -6.29457,1.61343 -1.19084,1.61343 2.2592,0 4.41534,-0.49785 4.7914,-1.10634 z m -58.30069,-3.31126 c -7.58472,-4.99513 -8.00997,-5.17378 -5.34072,-2.24365 1.33338,1.46369 2.82802,2.66125 3.32143,2.66125 0.49342,0 1.57212,0.675 2.39712,1.5 0.825,0.825 2.24509,1.5 3.15576,1.5 0.91068,0 -0.67944,-1.53792 -3.53359,-3.4176 z m 40.67964,-2.20996 c 0.0304,-0.62015 0.73033,-1.68775 1.55533,-2.37244 0.825,-0.68469 1.5,-1.68333 1.5,-2.21919 0,-1.14934 -8.90207,8.33389 -8.96029,9.54525 -0.0218,0.45433 1.28539,-0.22067 2.90496,-1.5 1.61957,-1.27933 2.96957,-2.83346 3,-3.45362 z m 21.24283,4.94445 c -0.72188,-0.28887 -1.58438,-0.25335 -1.91667,0.0789 -0.33229,0.3323 0.25834,0.56864 1.3125,0.52522 1.16495,-0.048 1.4019,-0.28494 0.60417,-0.60416 z m 6.8125,-0.31689 c 0,-0.55 0.51347,-1 1.14105,-1 1.49335,0 10.85895,-7.1505 10.85895,-8.29065 0,-0.48383 -2.1375,0.64499 -4.75,2.50848 -2.6125,1.86349 -5.9875,3.91717 -7.5,4.56373 -2.95181,1.26183 -3.71173,3.21844 -1.25,3.21844 0.825,0 1.5,-0.45 1.5,-1 z m -41.22077,-7.75833 c 0.67143,-4.26708 1.22077,-11.24652 1.22077,-15.50988 l 0,-7.75156 -6.75,-7.31039 c -6.347,-6.87392 -9.25,-12.32029 -9.25,-17.35409 0,-1.37624 -0.24735,-1.46705 -1.25,-0.45893 -0.87485,0.87962 -1.192,4.58658 -1.05673,12.35165 0.15487,8.89065 0.70598,12.64061 2.77406,18.87554 2.59748,7.83099 11.09589,24.91599 12.3937,24.91599 0.38359,0 1.24678,-3.49125 1.9182,-7.75833 z m -38.77553,-2.73773 c -1.2897,-1.37283 -2.59892,-2.24205 -2.90937,-1.9316 -0.31045,0.31044 0.55383,1.42366 1.92061,2.47382 3.41582,2.62451 3.77745,2.4262 0.98876,-0.54222 z m 41.60047,-4.23311 c -0.3323,-0.33229 -0.56864,0.25834 -0.52522,1.3125 0.048,1.16495 0.28494,1.4019 0.60416,0.60417 0.28887,-0.72187 0.25335,-1.58437 -0.0789,-1.91667 z m -18.92159,-8.7589 c -1.75042,-5.21844 -3.74378,-9.49344 -4.4297,-9.5 -0.68591,-0.007 -3.15323,-1.69943 -5.48292,-3.76193 -3.29256,-2.91493 -3.88559,-3.19329 -2.66308,-1.25 0.865,1.375 3.20565,3.57872 5.20144,4.89717 2.65972,1.75704 4.0976,3.7598 5.38463,7.5 0.96575,2.80656 1.81809,5.88222 1.89408,6.83481 0.12209,1.53045 2.13741,4.76802 2.96799,4.76802 0.17057,0 -1.12203,-4.26963 -2.87244,-9.48807 z m 20.20563,-2.76193 c 0.0822,-6.40259 -0.18546,-8.78826 -0.86943,-7.75 -1.22778,1.86375 -1.34712,17 -0.13404,17 0.48661,0 0.93817,-4.1625 1.00347,-9.25 z m 21.5374,2.12963 c -0.30381,-0.49156 0.15115,-1.16372 1.01101,-1.49368 0.85986,-0.32996 1.56338,-1.15704 1.56338,-1.83795 0,-0.68091 0.85269,-2.0097 1.89486,-2.95285 1.04218,-0.94316 2.1113,-2.84702 2.37582,-4.23081 0.60143,-3.14618 -0.0544,-2.44304 -5.16815,5.5407 -4.23506,6.61194 -5.20839,9.25763 -2.61354,7.1041 0.81894,-0.67967 1.24042,-1.63794 0.93662,-2.12951 z m -23.31168,-12.62963 c 1.31497,-20.19877 0.16505,-30.95812 -3.81915,-35.7343 -1.53713,-1.84268 -3.63929,-4.56027 -4.67148,-6.03909 l -1.8767,-2.68876 -2.75542,8.56834 c -3.67165,11.41747 -4.18904,13.64381 -3.17075,13.64381 1.22214,0 3.17957,-4.64618 3.17957,-7.54705 0,-1.34912 0.47039,-2.45295 1.04531,-2.45295 1.25422,0 0.29132,5.9416 -1.75894,10.85359 -2.41368,5.78269 0.69754,13.41305 8.12986,19.93871 4.13368,3.62942 5.53301,3.98743 5.6977,1.4577 z m 6.30197,-1.89144 c 0.51422,-1.34003 0.36354,-1.4204 -0.82057,-0.43768 -1.20088,0.99665 -1.5162,0.71986 -1.83253,-1.60855 -0.31327,-2.30595 -0.52563,-2.49723 -1.17942,-1.06233 -1.01496,2.22759 -0.0707,4.75 1.77825,4.75 0.78341,0 1.70784,-0.73865 2.05427,-1.64144 z m 29.71264,-5.60856 c 1.08712,-2.04022 1.04378,-2.12204 -0.46482,-0.87755 -0.91505,0.75484 -1.66372,1.76734 -1.66372,2.25 0,1.52748 0.88863,0.95451 2.12854,-1.37245 z m -23.12542,-5.75352 c 3.98021,-4.48947 6.52141,-8.34839 7.07913,-10.75 1.68595,-7.25989 1.47836,-7.4229 -4.83225,-3.79458 -9.92189,5.70465 -10.80414,6.95823 -10.41467,14.7981 0.18443,3.7125 0.70058,6.75 1.14701,6.75 0.44643,0 3.60578,-3.15158 7.02078,-7.00352 z m -9.88694,-0.59555 c -0.73626,-3.13796 -0.93492,-3.37906 -1.01573,-1.23272 -0.10426,2.76943 0.85403,6.21064 1.53882,5.52585 0.21571,-0.2157 -0.0197,-2.14761 -0.52309,-4.29313 z m 37.88382,0.85418 c 0,-0.275 -0.675,0.0602 -1.5,0.74489 -0.825,0.68469 -1.5,1.46989 -1.5,1.74489 0,0.275 0.675,-0.0602 1.5,-0.74489 0.825,-0.68469 1.5,-1.46989 1.5,-1.74489 z M 309.5744,481.36174 c -0.37951,-4.18802 -1.12673,-7.61458 -1.66049,-7.61458 -0.53376,0 -0.71164,1.0313 -0.39528,2.29178 0.31636,1.26048 0.87848,4.87215 1.24914,8.02594 0.98221,8.35703 1.61632,6.23204 0.80663,-2.70314 z m -21.41415,2.88542 c 0,-0.825 -0.45,-1.5 -1,-1.5 -0.55,0 -1,0.675 -1,1.5 0,0.825 0.45,1.5 1,1.5 0.55,0 1,-0.675 1,-1.5 z m 39.6361,-10.19723 c -0.40966,-0.40967 -1.16349,-0.0829 -1.67516,0.72619 -1.53967,2.43457 -1.07785,3.51652 0.72954,1.70913 0.92976,-0.92976 1.35529,-2.02565 0.94562,-2.43532 z m -21.19954,-7.61313 c -0.31227,-2.3043 -0.96738,-6.21464 -1.4558,-8.68964 -0.48841,-2.475 -1.17345,-6.4125 -1.52229,-8.75 -0.76225,-5.10759 -2.45847,-5.6506 -2.45847,-0.78702 0,1.90464 -0.87054,5.67157 -1.93454,8.37095 -2.13751,5.4229 -1.87933,6.27735 3.74093,12.38051 3.21765,3.49413 4.34005,2.71349 3.63017,-2.5248 z"
       id="path2996" />
  </g>
</svg>
